<?xml version="1.0" encoding="UTF-8"?>
<svg id="_レイヤー_1" data-name="レイヤー_1" xmlns="http://www.w3.org/2000/svg" width="140" height="100" version="1.1" viewBox="0 0 140 100">
  <!-- Generator: Adobe Illustrator 29.1.0, SVG Export Plug-In . SVG Version: 2.1.0 Build 142)  -->
  <g>
    <path d="M49.372,95.599c0,.773-.428,1.16-1.283,1.16h-8.666c-.68,0-1.195-.182-1.547-.545-.363-.34-.545-.809-.545-1.406v-9.299c0-1.277.668-1.916,2.004-1.916h8.648c.785,0,1.178.422,1.178,1.266,0,.293-.123.551-.369.773-.223.223-.492.334-.809.334h-6.961c-.434,0-.721.076-.861.229-.152.141-.229.41-.229.809v1.775h7.207c.34,0,.609.123.809.369.211.223.316.504.316.844,0,.785-.398,1.178-1.195,1.178h-7.119v2.25c0,.633.393.949,1.178.949h7.049c.352,0,.645.117.879.352.211.234.316.527.316.879Z" fill="#f44336"/>
    <path d="M62.644,95.792c0,.34-.141.645-.422.914-.281.246-.598.369-.949.369-.422-.012-.768-.205-1.037-.58l-3.27-4.887h-3.92v4.271c0,.797-.434,1.195-1.301,1.195s-1.301-.404-1.301-1.213v-10.23c0-.609.211-1.102.633-1.477.41-.375.955-.562,1.635-.562h5.537c1.207,0,2.197.375,2.971,1.125.773.738,1.16,1.682,1.16,2.83,0,.832-.229,1.588-.686,2.268-.457.656-1.061,1.143-1.811,1.459l2.531,3.762c.152.234.229.486.229.756ZM59.796,87.565c0-.516-.176-.92-.527-1.213-.328-.246-.762-.369-1.301-.369h-4.289c-.422,0-.633.264-.633.791v2.426h4.922c.527,0,.955-.135,1.283-.404.363-.281.545-.691.545-1.23Z" fill="#f44336"/>
    <path d="M75.915,95.792c0,.34-.141.645-.422.914-.281.246-.598.369-.949.369-.422-.012-.768-.205-1.037-.58l-3.27-4.887h-3.92v4.271c0,.797-.434,1.195-1.301,1.195s-1.301-.404-1.301-1.213v-10.23c0-.609.211-1.102.633-1.477.41-.375.955-.562,1.635-.562h5.537c1.207,0,2.197.375,2.971,1.125.773.738,1.16,1.682,1.16,2.83,0,.832-.229,1.588-.686,2.268-.457.656-1.061,1.143-1.811,1.459l2.531,3.762c.152.234.229.486.229.756ZM73.067,87.565c0-.516-.176-.92-.527-1.213-.328-.246-.762-.369-1.301-.369h-4.289c-.422,0-.633.264-.633.791v2.426h4.922c.527,0,.955-.135,1.283-.404.363-.281.545-.691.545-1.23Z" fill="#f44336"/>
    <path d="M89.591,90.132c0,2.098-.498,3.75-1.494,4.957-1.102,1.324-2.713,1.986-4.834,1.986-2.098,0-3.721-.68-4.869-2.039-1.055-1.266-1.582-2.9-1.582-4.904,0-2.016.551-3.645,1.652-4.887,1.16-1.312,2.742-1.969,4.746-1.969,1.945,0,3.51.656,4.693,1.969,1.125,1.254,1.688,2.883,1.688,4.887ZM87.007,90.237c0-1.277-.275-2.32-.826-3.129-.656-.973-1.635-1.459-2.936-1.459-1.266,0-2.244.48-2.936,1.441-.598.832-.896,1.881-.896,3.146,0,1.254.299,2.273.896,3.059.68.926,1.658,1.389,2.936,1.389,1.289,0,2.262-.451,2.918-1.354.562-.785.844-1.816.844-3.094Z" fill="#f44336"/>
    <path d="M103.038,95.792c0,.34-.141.645-.422.914-.281.246-.598.369-.949.369-.422-.012-.768-.205-1.037-.58l-3.27-4.887h-3.92v4.271c0,.797-.434,1.195-1.301,1.195s-1.301-.404-1.301-1.213v-10.23c0-.609.211-1.102.633-1.477.41-.375.955-.562,1.635-.562h5.537c1.207,0,2.197.375,2.971,1.125.773.738,1.16,1.682,1.16,2.83,0,.832-.229,1.588-.686,2.268-.457.656-1.061,1.143-1.811,1.459l2.531,3.762c.152.234.229.486.229.756ZM100.19,87.565c0-.516-.176-.92-.527-1.213-.328-.246-.762-.369-1.301-.369h-4.289c-.422,0-.633.264-.633.791v2.426h4.922c.527,0,.955-.135,1.283-.404.363-.281.545-.691.545-1.23Z" fill="#f44336"/>
  </g>
  <path d="M72.494,56.494c.671-.671,1.006-1.502,1.006-2.494s-.335-1.823-1.006-2.494c-.671-.671-1.502-1.006-2.494-1.006s-1.823.335-2.494,1.006-1.006,1.502-1.006,2.494.335,1.823,1.006,2.494,1.502,1.006,2.494,1.006,1.823-.335,2.494-1.006ZM66.5,43.5h7v-21h-7v21ZM70,75c-4.842,0-9.392-.919-13.65-2.756-4.258-1.837-7.963-4.331-11.113-7.481s-5.644-6.854-7.481-11.113-2.756-8.808-2.756-13.65.919-9.392,2.756-13.65,4.331-7.963,7.481-11.113,6.854-5.644,11.113-7.481,8.808-2.756,13.65-2.756,9.392.919,13.65,2.756c4.258,1.837,7.962,4.331,11.113,7.481s5.644,6.854,7.481,11.113,2.756,8.808,2.756,13.65-.919,9.392-2.756,13.65-4.331,7.962-7.481,11.113c-3.15,3.15-6.854,5.644-11.113,7.481-4.258,1.837-8.808,2.756-13.65,2.756ZM70,68c7.817,0,14.438-2.712,19.862-8.138,5.425-5.425,8.138-12.046,8.138-19.862s-2.712-14.438-8.138-19.863-12.046-8.137-19.862-8.137-14.438,2.712-19.863,8.137-8.137,12.046-8.137,19.863,2.712,14.438,8.137,19.862,12.046,8.138,19.863,8.138Z" fill="#f44336"/>
</svg>