<?xml version="1.0" encoding="UTF-8"?>
<svg id="_レイヤー_1" data-name="レイヤー_1" xmlns="http://www.w3.org/2000/svg" width="140" height="100" version="1.1" viewBox="0 0 140 100">
  <!-- Generator: Adobe Illustrator 29.1.0, SVG Export Plug-In . SVG Version: 2.1.0 Build 142)  -->
  <g>
    <path d="M51.367,95.739c0,.879-.451,1.318-1.354,1.318-.82,0-1.23-.445-1.23-1.336v-11.109c0-.891.41-1.336,1.23-1.336.902,0,1.354.445,1.354,1.336v11.127Z" fill="#2196f3"/>
    <path d="M64.48,95.739c0,.926-.387,1.389-1.16,1.389-.516,0-.955-.234-1.318-.703l-6.609-8.525v7.84c0,.879-.451,1.318-1.354,1.318-.82,0-1.23-.445-1.23-1.336v-11.109c0-.891.41-1.336,1.23-1.336.562,0,1.014.223,1.354.668l6.486,8.35v-7.682c0-.891.41-1.336,1.23-1.336.914,0,1.371.445,1.371,1.336v11.127Z" fill="#2196f3"/>
    <path d="M77.734,84.858c0,.316-.129.58-.387.791-.234.223-.516.334-.844.334h-6.732c-.844,0-1.266.357-1.266,1.072v2.637h7.031c.34,0,.621.111.844.334.211.211.316.492.316.844,0,.797-.41,1.195-1.23,1.195h-6.961v3.604c0,.926-.428,1.389-1.283,1.389-.879,0-1.318-.463-1.318-1.389v-10.336c0-1.16.65-1.74,1.951-1.74h8.631c.375,0,.674.123.896.369.234.223.352.521.352.896Z" fill="#2196f3"/>
    <path d="M91.41,90.132c0,2.098-.498,3.75-1.494,4.957-1.102,1.324-2.713,1.986-4.834,1.986-2.098,0-3.721-.68-4.869-2.039-1.055-1.266-1.582-2.9-1.582-4.904,0-2.016.551-3.645,1.652-4.887,1.16-1.312,2.742-1.969,4.746-1.969,1.945,0,3.51.656,4.693,1.969,1.125,1.254,1.688,2.883,1.688,4.887ZM88.826,90.237c0-1.277-.275-2.32-.826-3.129-.656-.973-1.635-1.459-2.936-1.459-1.266,0-2.244.48-2.936,1.441-.598.832-.896,1.881-.896,3.146,0,1.254.299,2.273.896,3.059.68.926,1.658,1.389,2.936,1.389,1.289,0,2.262-.451,2.918-1.354.562-.785.844-1.816.844-3.094Z" fill="#2196f3"/>
  </g>
  <path d="M66.5,57.5h7v-21h-7v21ZM72.494,28.494c.671-.671,1.006-1.502,1.006-2.494s-.335-1.823-1.006-2.494c-.671-.671-1.502-1.006-2.494-1.006s-1.823.335-2.494,1.006-1.006,1.502-1.006,2.494.335,1.823,1.006,2.494,1.502,1.006,2.494,1.006,1.823-.335,2.494-1.006ZM70,75c-4.842,0-9.392-.919-13.65-2.756-4.258-1.837-7.963-4.331-11.113-7.481s-5.644-6.854-7.481-11.113-2.756-8.808-2.756-13.65.919-9.392,2.756-13.65,4.331-7.963,7.481-11.113,6.854-5.644,11.113-7.481,8.808-2.756,13.65-2.756,9.392.919,13.65,2.756c4.258,1.837,7.962,4.331,11.113,7.481s5.644,6.854,7.481,11.113,2.756,8.808,2.756,13.65-.919,9.392-2.756,13.65-4.331,7.962-7.481,11.113c-3.15,3.15-6.854,5.644-11.113,7.481-4.258,1.837-8.808,2.756-13.65,2.756ZM70,68c7.817,0,14.438-2.712,19.862-8.138,5.425-5.425,8.138-12.046,8.138-19.862s-2.712-14.438-8.138-19.863-12.046-8.137-19.862-8.137-14.438,2.712-19.863,8.137-8.137,12.046-8.137,19.863,2.712,14.438,8.137,19.862,12.046,8.138,19.863,8.138Z" fill="#2196f3"/>
</svg>