<?xml version="1.0" encoding="UTF-8"?>
<svg id="_レイヤー_1" data-name="レイヤー_1" xmlns="http://www.w3.org/2000/svg" width="140" height="100" version="1.1" viewBox="0 0 140 100">
  <!-- Generator: Adobe Illustrator 29.1.0, SVG Export Plug-In . SVG Version: 2.1.0 Build 142)  -->
  <g>
    <path d="M36.54,93.226c0,2.566-2.021,3.85-6.064,3.85-1.863,0-3.521-.551-4.975-1.652-.914-.691-1.371-1.266-1.371-1.723,0-.375.123-.691.369-.949.234-.258.533-.387.896-.387.223,0,.633.205,1.23.615.844.562,1.447.932,1.811,1.107.797.41,1.523.615,2.18.615,2.121,0,3.182-.492,3.182-1.477,0-.422-.486-.832-1.459-1.23-1.055-.398-2.109-.791-3.164-1.178-1.641-.645-2.707-1.131-3.199-1.459-.938-.621-1.406-1.418-1.406-2.391,0-1.254.545-2.203,1.635-2.848.973-.551,2.262-.826,3.867-.826,1.98,0,3.609.387,4.887,1.16.434.246.65.621.65,1.125,0,.773-.451,1.16-1.354,1.16-.117,0-.691-.182-1.723-.545-1.02-.352-1.84-.527-2.461-.527-1.805,0-2.707.381-2.707,1.143,0,.281.246.557.738.826.48.258,1.418.633,2.812,1.125,1.957.703,3.234,1.242,3.832,1.617,1.195.727,1.793,1.676,1.793,2.848Z" fill="#4caf50"/>
    <path d="M49.091,92.065c0,3.328-1.916,4.992-5.748,4.992-1.805,0-3.211-.434-4.219-1.301s-1.512-2.098-1.512-3.691v-7.453c0-.891.434-1.336,1.301-1.336s1.301.445,1.301,1.336v6.996c0,1.137.223,1.934.668,2.391.434.457,1.254.686,2.461.686,1.195,0,2.027-.229,2.496-.686.457-.457.686-1.254.686-2.391v-7.154c0-.785.387-1.178,1.16-1.178.938,0,1.406.41,1.406,1.23v7.559Z" fill="#4caf50"/>
    <path d="M62.995,93.595c0,.609-.463,1.26-1.389,1.951-.715.539-1.365.914-1.951,1.125-.715.258-1.605.387-2.672.387-2.074,0-3.697-.586-4.869-1.758-1.172-1.16-1.758-2.842-1.758-5.045,0-2.133.674-3.85,2.021-5.15,1.266-1.219,2.842-1.828,4.729-1.828,1.559,0,2.906.381,4.043,1.143.469.305.873.668,1.213,1.09.363.48.545.914.545,1.301,0,.363-.117.662-.352.896-.223.211-.521.316-.896.316-.352,0-.75-.199-1.195-.598-.715-.656-1.154-1.037-1.318-1.143-.609-.41-1.289-.615-2.039-.615-1.102,0-2.057.404-2.865,1.213-.855.879-1.283,2.004-1.283,3.375,0,1.453.363,2.561,1.09,3.322.715.738,1.693,1.107,2.936,1.107.809,0,1.553-.205,2.232-.615.27-.176.727-.562,1.371-1.16.445-.41.814-.615,1.107-.615.352,0,.656.135.914.404.258.246.387.545.387.896Z" fill="#4caf50"/>
    <path d="M76.53,93.595c0,.609-.463,1.26-1.389,1.951-.715.539-1.365.914-1.951,1.125-.715.258-1.605.387-2.672.387-2.074,0-3.697-.586-4.869-1.758-1.172-1.16-1.758-2.842-1.758-5.045,0-2.133.674-3.85,2.021-5.15,1.266-1.219,2.842-1.828,4.729-1.828,1.559,0,2.906.381,4.043,1.143.469.305.873.668,1.213,1.09.363.48.545.914.545,1.301,0,.363-.117.662-.352.896-.223.211-.521.316-.896.316-.352,0-.75-.199-1.195-.598-.715-.656-1.154-1.037-1.318-1.143-.609-.41-1.289-.615-2.039-.615-1.102,0-2.057.404-2.865,1.213-.855.879-1.283,2.004-1.283,3.375,0,1.453.363,2.561,1.09,3.322.715.738,1.693,1.107,2.936,1.107.809,0,1.553-.205,2.232-.615.27-.176.727-.562,1.371-1.16.445-.41.814-.615,1.107-.615.352,0,.656.135.914.404.258.246.387.545.387.896Z" fill="#4caf50"/>
    <path d="M89.644,95.599c0,.773-.428,1.16-1.283,1.16h-8.666c-.68,0-1.195-.182-1.547-.545-.363-.34-.545-.809-.545-1.406v-9.299c0-1.277.668-1.916,2.004-1.916h8.648c.785,0,1.178.422,1.178,1.266,0,.293-.123.551-.369.773-.223.223-.492.334-.809.334h-6.961c-.434,0-.721.076-.861.229-.152.141-.229.41-.229.809v1.775h7.207c.34,0,.609.123.809.369.211.223.316.504.316.844,0,.785-.398,1.178-1.195,1.178h-7.119v2.25c0,.633.393.949,1.178.949h7.049c.352,0,.645.117.879.352.211.234.316.527.316.879Z" fill="#4caf50"/>
    <path d="M102.757,93.226c0,2.566-2.021,3.85-6.064,3.85-1.863,0-3.521-.551-4.975-1.652-.914-.691-1.371-1.266-1.371-1.723,0-.375.123-.691.369-.949.234-.258.533-.387.896-.387.223,0,.633.205,1.23.615.844.562,1.447.932,1.811,1.107.797.41,1.523.615,2.18.615,2.121,0,3.182-.492,3.182-1.477,0-.422-.486-.832-1.459-1.23-1.055-.398-2.109-.791-3.164-1.178-1.641-.645-2.707-1.131-3.199-1.459-.938-.621-1.406-1.418-1.406-2.391,0-1.254.545-2.203,1.635-2.848.973-.551,2.262-.826,3.867-.826,1.98,0,3.609.387,4.887,1.16.434.246.65.621.65,1.125,0,.773-.451,1.16-1.354,1.16-.117,0-.691-.182-1.723-.545-1.02-.352-1.84-.527-2.461-.527-1.805,0-2.707.381-2.707,1.143,0,.281.246.557.738.826.48.258,1.418.633,2.812,1.125,1.957.703,3.234,1.242,3.832,1.617,1.195.727,1.793,1.676,1.793,2.848Z" fill="#4caf50"/>
    <path d="M115.87,93.226c0,2.566-2.021,3.85-6.064,3.85-1.863,0-3.521-.551-4.975-1.652-.914-.691-1.371-1.266-1.371-1.723,0-.375.123-.691.369-.949.234-.258.533-.387.896-.387.223,0,.633.205,1.23.615.844.562,1.447.932,1.811,1.107.797.41,1.523.615,2.18.615,2.121,0,3.182-.492,3.182-1.477,0-.422-.486-.832-1.459-1.23-1.055-.398-2.109-.791-3.164-1.178-1.641-.645-2.707-1.131-3.199-1.459-.938-.621-1.406-1.418-1.406-2.391,0-1.254.545-2.203,1.635-2.848.973-.551,2.262-.826,3.867-.826,1.98,0,3.609.387,4.887,1.16.434.246.65.621.65,1.125,0,.773-.451,1.16-1.354,1.16-.117,0-.691-.182-1.723-.545-1.02-.352-1.84-.527-2.461-.527-1.805,0-2.707.381-2.707,1.143,0,.281.246.557.738.826.48.258,1.418.633,2.812,1.125,1.957.703,3.234,1.242,3.832,1.617,1.195.727,1.793,1.676,1.793,2.848Z" fill="#4caf50"/>
  </g>
  <path d="M65.1,56.1l24.675-24.675-4.9-4.9-19.775,19.775-9.975-9.975-4.9,4.9,14.875,14.875ZM70,75c-4.842,0-9.392-.919-13.65-2.756-4.258-1.837-7.963-4.331-11.113-7.481s-5.644-6.854-7.481-11.113-2.756-8.808-2.756-13.65.919-9.392,2.756-13.65,4.331-7.963,7.481-11.113,6.854-5.644,11.113-7.481,8.808-2.756,13.65-2.756,9.392.919,13.65,2.756c4.258,1.837,7.962,4.331,11.113,7.481s5.644,6.854,7.481,11.113,2.756,8.808,2.756,13.65-.919,9.392-2.756,13.65-4.331,7.962-7.481,11.113c-3.15,3.15-6.854,5.644-11.113,7.481-4.258,1.837-8.808,2.756-13.65,2.756ZM70,68c7.817,0,14.438-2.712,19.862-8.138,5.425-5.425,8.138-12.046,8.138-19.862s-2.712-14.438-8.138-19.863-12.046-8.137-19.862-8.137-14.438,2.712-19.863,8.137-8.137,12.046-8.137,19.863,2.712,14.438,8.137,19.862,12.046,8.138,19.863,8.138Z" fill="#4caf50"/>
</svg>