<?xml version="1.0" encoding="UTF-8"?>
<svg id="_レイヤー_1" data-name="レイヤー_1" xmlns="http://www.w3.org/2000/svg" width="140" height="100" version="1.1" viewBox="0 0 140 100">
  <!-- Generator: Adobe Illustrator 29.1.0, SVG Export Plug-In . SVG Version: 2.1.0 Build 142)  -->
  <path d="M29.474,75L70,5l40.526,70H29.474ZM42.184,67.632h55.632l-27.816-47.895-27.816,47.895ZM72.625,62.888c.706-.706,1.059-1.581,1.059-2.625s-.353-1.919-1.059-2.625c-.706-.706-1.581-1.059-2.625-1.059s-1.919.353-2.625,1.059-1.059,1.581-1.059,2.625.353,1.919,1.059,2.625c.706.706,1.581,1.059,2.625,1.059s1.919-.353,2.625-1.059ZM66.316,52.895h7.368v-18.421h-7.368v18.421Z" fill="#ff5722"/>
  <g>
    <path d="M41.62,84.454c0,.07-.158.697-.475,1.881l-2.637,9.668c-.188.703-.609,1.055-1.266,1.055-.809,0-1.295-.346-1.459-1.037l-1.688-7.189-1.74,7.225c-.164.668-.598,1.002-1.301,1.002-.727,0-1.184-.34-1.371-1.02l-2.742-10.266c-.234-.844-.352-1.295-.352-1.354,0-.305.129-.568.387-.791.246-.234.539-.352.879-.352.457,0,.791.129,1.002.387.188.199.346.58.475,1.143l1.688,7.049,1.758-7.4c.094-.422.229-.727.404-.914.164-.176.439-.264.826-.264.762,0,1.23.393,1.406,1.178l1.758,7.4,1.758-7.172c.223-.938.686-1.406,1.389-1.406.387,0,.703.123.949.369.234.234.352.504.352.809Z" fill="#ff5722"/>
    <path d="M56.368,95.634c0,.398-.158.738-.475,1.02-.328.27-.697.404-1.107.404-.516,0-.896-.27-1.143-.809l-.949-1.969h-6.873l-.932,1.969c-.246.539-.65.809-1.213.809-.387,0-.738-.141-1.055-.422s-.475-.615-.475-1.002c0-.234.064-.463.193-.686l5.502-10.881c.258-.527.732-.791,1.424-.791.68,0,1.154.264,1.424.791l5.502,10.881c.117.223.176.451.176.686ZM51.569,91.89l-2.303-4.904-2.303,4.904h4.605Z" fill="#ff5722"/>
    <path d="M69.552,95.792c0,.34-.141.645-.422.914-.281.246-.598.369-.949.369-.422-.012-.768-.205-1.037-.58l-3.27-4.887h-3.92v4.271c0,.797-.434,1.195-1.301,1.195s-1.301-.404-1.301-1.213v-10.23c0-.609.211-1.102.633-1.477.41-.375.955-.562,1.635-.562h5.537c1.207,0,2.197.375,2.971,1.125.773.738,1.16,1.682,1.16,2.83,0,.832-.229,1.588-.686,2.268-.457.656-1.061,1.143-1.811,1.459l2.531,3.762c.152.234.229.486.229.756ZM66.704,87.565c0-.516-.176-.92-.527-1.213-.328-.246-.762-.369-1.301-.369h-4.289c-.422,0-.633.264-.633.791v2.426h4.922c.527,0,.955-.135,1.283-.404.363-.281.545-.691.545-1.23Z" fill="#ff5722"/>
    <path d="M82.296,95.739c0,.926-.387,1.389-1.16,1.389-.516,0-.955-.234-1.318-.703l-6.609-8.525v7.84c0,.879-.451,1.318-1.354,1.318-.82,0-1.23-.445-1.23-1.336v-11.109c0-.891.41-1.336,1.23-1.336.562,0,1.014.223,1.354.668l6.486,8.35v-7.682c0-.891.41-1.336,1.23-1.336.914,0,1.371.445,1.371,1.336v11.127Z" fill="#ff5722"/>
    <path d="M86.304,95.739c0,.879-.451,1.318-1.354,1.318-.82,0-1.23-.445-1.23-1.336v-11.109c0-.891.41-1.336,1.23-1.336.902,0,1.354.445,1.354,1.336v11.127Z" fill="#ff5722"/>
    <path d="M99.417,95.739c0,.926-.387,1.389-1.16,1.389-.516,0-.955-.234-1.318-.703l-6.609-8.525v7.84c0,.879-.451,1.318-1.354,1.318-.82,0-1.23-.445-1.23-1.336v-11.109c0-.891.41-1.336,1.23-1.336.562,0,1.014.223,1.354.668l6.486,8.35v-7.682c0-.891.41-1.336,1.23-1.336.914,0,1.371.445,1.371,1.336v11.127Z" fill="#ff5722"/>
    <path d="M113.128,95.44c0,1.09-.445,1.635-1.336,1.635-.844,0-1.266-.463-1.266-1.389-.855.891-2.133,1.336-3.832,1.336-1.898,0-3.393-.656-4.482-1.969-1.031-1.242-1.547-2.842-1.547-4.799,0-2.098.545-3.768,1.635-5.01,1.137-1.312,2.725-1.969,4.764-1.969,2.672,0,4.559.902,5.66,2.707.164.27.246.574.246.914,0,.363-.105.65-.316.861s-.457.316-.738.316c-.586,0-1.031-.217-1.336-.65-.809-1.184-2.021-1.775-3.639-1.775-1.113,0-2.027.492-2.742,1.477-.621.891-.932,1.91-.932,3.059,0,1.289.293,2.338.879,3.146.668.914,1.623,1.371,2.865,1.371,1.699,0,2.859-.85,3.48-2.549h-2.215c-.762,0-1.143-.398-1.143-1.195,0-.773.381-1.16,1.143-1.16h3.234c1.078,0,1.617.504,1.617,1.512v4.131Z" fill="#ff5722"/>
  </g>
</svg>