<svg xmlns="http://www.w3.org/2000/svg" data-name="レイヤー_1" viewBox="0 0 440 36"><g fill="#fff"><path d="M17.56 11.95v-.4h-1.07v.4h-4.86l-.4.4v3.12h.85v-2.72h2.72c.09.45.09 1.34-.62 1.96l.54.62c.94-.8 1.03-1.96.94-2.63h2.45c-.09.67-.04 1.79.94 2.59l.54-.62c-.71-.62-.71-1.52-.62-1.96h3.08v2.72h.85v-3.12l-.4-.4-4.91.04Zm-2.77 5v-.85h-3.48v1.74c0 .18.04.45.27.71.31.4.89.58 1.7.58h1.52v-.85h-1.52c-.67 0-.94-.18-1.03-.27v-.04h2.59v-.8h-2.68v-.22h2.63Zm-3.03 2.59-.4.4v4.37h.85v-3.97h9.64v3.93h.85v-4.33l-.4-.4H11.77Z"/><path d="M14.61 22.13v-.49h4.82v.49h-4.82Zm6.07-.31v1.52h-3.17v-.36h2.32l.4-.4v-1.34l-.4-.4h-5.67l-.4.36v1.34l.4.4h2.45v.36h-3.26v-1.92h-.85v2.37l.4.4h3.7v.36h-3.48v.85h3.93l.4-.4v-.8h3.57l.4-.4v-2.37h-.85l.09.45M17.02 17c.58 0 .94.27.94.45s-.36.45-.94.45-.94-.27-.94-.45c-.04-.18.36-.45.94-.45Zm-1.78 2.14h.85c0-.18.36-.45.94-.45s.94.27.94.45h.85c0-.31-.18-.62-.45-.85.27-.22.45-.54.45-.85s-.18-.62-.45-.85c.27-.22.45-.54.45-.85h-.85c0 .18-.36.45-.94.45s-.94-.27-.94-.45h-.85c0 .31.18.62.45.85-.27.22-.45.54-.45.85s.18.62.45.85c-.31.22-.45.49-.45.85m7.45-3.04h-3.44v.85h2.63v.22h-2.63v.85h2.59v.04c-.09.09-.36.27-1.03.27h-1.52v.85h1.52c.8 0 1.38-.18 1.7-.58.22-.27.27-.58.27-.71v-.04c-.09-.09-.09-1.74-.09-1.74Z"/><path d="M26.13 30.25c-3.44-.89-3.75-3.12-7.94-2.37l-1.92.36c-1.16-1.21-2.1-2.28-4.82-2.28H9.17c-.31-.71-.62-1.34-1.16-1.87-1.43-1.38-5.4-1.61-5.62-1.61-.13-.4-.22-.8-.31-1.21 2.19-1.16 5.76-3.44 8.75-6.03v-.67c-2.68 2.14-6.29 3.97-9.02 5.18-.09-.58-.09-1.21-.09-1.79C1.72 9.52 8.59 2.7 17.03 2.7c7.05 0 13.03 4.82 14.77 11.34-.8-.58-1.65-1.29-2.41-2.05h-.85c-3.03-3.08-5.49-6.83-5.49-6.83h-1.16l-.27.62-.36-.62h-1.38l-.36.62-.22-.62h-1.16s-1.56 3.17-4.33 6.43h.62c2.45-3.03 3.88-6.03 3.88-6.03h.71l.22.67-.31.54h.4l.62-1.21h1.12l.54 1.21h.58l-.31-.54.22-.67h.76s1.74 3.35 4.82 7.01h.76c1.12 1.25 2.37 2.54 3.75 3.7.04.58.09 1.12.09 1.7 0 5.04-2.41 9.51-6.16 12.27Zm-2.23 1.38c-4.2-.4-5.94-1.7-7.19-2.95 3.75-.45 4.06 1.87 7.81 2.59-.18.13-.4.27-.62.36m-2.46 1.03s-6.11-.22-9.24-2.68c-1.61-1.25-2.28-2.41-2.77-3.39 5.49.22 3.35 5.09 13.03 5.71-.36.13-.67.22-1.03.36m-4.41.63c-6.65 0-12.36-4.28-14.46-10.26 0 0 2.5.13 3.57 1.79s1.79 3.79 5.09 5.85c3.3 2.05 7.32 2.23 8.7 2.37-.94.18-1.92.27-2.9.27m0-31.31C8.18 2 1 9.19 1 17.98S8.19 34 17.02 34 33 26.81 33 17.98 25.81 2 17.02 2"/></g><g fill="#fff"><path d="M47.22 3.93c.44.03.68.26.7.7-.03.46-.26.7-.7.72h-2.81v1h2.5c.38.03.58.26.61.7-.03.4-.23.62-.61.64h-2.5v1.15h3.11c.44.03.68.26.7.7-.03.46-.26.7-.7.72h-8.18c-.46-.03-.69-.27-.7-.72.01-.44.25-.68.7-.7h3.52V7.69h-2.73c-.4-.03-.61-.24-.62-.64.01-.44.22-.68.62-.7h2.73v-1h-2.91c-.43-.03-.66-.27-.7-.72.04-.44.27-.68.7-.7h2.91v-.45c.03-.49.29-.75.78-.78.49.03.75.29.78.78v.45h2.81Zm-5.72 7.21h4.22c1.04 0 1.56.52 1.56 1.56v6.41c0 1.3-.64 1.95-1.93 1.95-.36 0-.76-.03-1.19-.08-.3-.12-.48-.38-.53-.78.04-.48.3-.74.78-.78h.06c.3.05.54.08.72.08.35 0 .53-.19.53-.57V17.7H41.5v2.81c0 .52-.26.78-.78.78s-.78-.26-.78-.78V12.7c0-1.04.52-1.56 1.56-1.56Zm0 2.58h4.22V13c0-.25-.12-.37-.37-.37h-3.44c-.27 0-.41.12-.41.37v.72Zm0 2.64h4.22v-1.23H41.5v1.23Zm9.62-13.74c.55.04.83.27.86.7 0 .14-.08.32-.25.53h2.34c.85 0 1.27.42 1.27 1.27 0 .05-.05.18-.14.37l-1.23 2.13h.96c.95 0 1.43.46 1.43 1.39v1.89h.37c.49.03.75.29.78.78-.03.5-.29.76-.78.78h-.37v2.11c0 .94-.48 1.41-1.43 1.41h-2.17v3.2c0 1.2-.6 1.8-1.8 1.8-.38 0-.87-.03-1.48-.08-.33-.13-.49-.37-.49-.7.03-.55.29-.83.78-.86h.1c.35.05.66.08.92.08s.41-.14.41-.41v-3.03h-2.21c-.57 0-.86-.26-.86-.78s.29-.78.86-.78h2.21v-1.95h-2.83c-.48-.03-.74-.29-.76-.78.03-.49.28-.75.76-.78h2.83V9.19h-2.21c-.57 0-.86-.26-.86-.78s.29-.78.86-.78h2.99l1.35-1.95.04-.1c0-.14-.08-.21-.23-.21h-2.01a.917.917 0 0 1-.25-.06c-.04.07-.08.12-.12.18-.4.6-.88 1.18-1.43 1.74-.25.22-.48.33-.7.33-.38-.1-.61-.34-.7-.7 0-.36.1-.6.29-.7.96-1.04 1.7-2.04 2.21-2.99.22-.35.46-.53.7-.53Zm1.65 6.57v1.72h2.09V9.64c0-.3-.15-.45-.45-.45h-1.64Zm0 3.28v1.95h1.64c.3 0 .45-.16.45-.49v-1.46h-2.09ZM61.73 3.56h12.5c1.37 0 2.05.67 2.05 2.01v13.14c0 1.46-.74 2.19-2.21 2.19-.39 0-.83-.03-1.31-.08-.4-.14-.64-.46-.7-.96.06-.51.4-.79 1.02-.86h.08c.42.07.75.1 1 .1.22 0 .33-.1.33-.31V5.65c0-.3-.16-.45-.49-.45H61.99c-.33 0-.49.15-.49.45v14.63c0 .57-.31.86-.94.86-.57 0-.86-.29-.86-.86V5.57c0-1.34.68-2.01 2.03-2.01Zm9.39 2.27c.52 0 .83.26.94.78 0 .23-.45 1.07-1.35 2.5h2.42c.49.03.76.31.8.86-.04.48-.31.74-.8.76h-4.36v5.57h1.64c.3 0 .45-.16.45-.47v-3.46c0-.51.26-.76.78-.76.57 0 .86.25.86.76v3.93c0 1.04-.51 1.56-1.54 1.56H65c-1.03 0-1.54-.52-1.54-1.56v-3.93c0-.51.29-.76.86-.76.52 0 .78.25.78.76v3.46c0 .31.15.47.45.47h1.58v-5.57h-4.22c-.5-.03-.76-.28-.78-.76.03-.55.29-.83.78-.86h6c.55-.92 1.02-1.82 1.43-2.68.14-.4.4-.61.78-.61Zm-6.26-.18c.31 0 .55.14.7.41.25.27.53.77.86 1.48.1.26.16.46.16.61-.05.43-.34.66-.86.7-.29 0-.52-.15-.7-.45-.26-.61-.52-1.08-.78-1.41-.09-.21-.14-.4-.16-.57.05-.47.31-.73.78-.78ZM96.05 7.55c.55.03.83.31.86.86-.03.55-.31.83-.86.86h-7.13c.29 1.08.64 2.04 1.07 2.87.59 1.12 1.36 2.21 2.32 3.26.86 1.04 2.28 2.25 4.26 3.61.35.17.54.46.57.86-.1.57-.42.86-.94.86-.22 0-.53-.1-.94-.29-1.69-1.16-3.14-2.43-4.34-3.83-.96-1.11-1.74-2.26-2.32-3.46-.17-.3-.32-.61-.45-.94-.66 2.2-1.77 4.07-3.32 5.61-1.11 1.13-2.4 2.1-3.87 2.91-.27.22-.56.33-.86.33-.53-.09-.85-.4-.96-.94.01-.31.15-.57.41-.78 1.43-.86 2.56-1.67 3.4-2.44 1.45-1.26 2.52-2.84 3.22-4.75.26-.96.47-1.93.62-2.89h-6.88c-.55-.03-.83-.31-.86-.86.03-.55.31-.83.86-.86h7.07c.04-.57.06-1.15.06-1.72V3.77c.05-.55.34-.83.86-.86.59.03.9.31.94.86v2.05c0 .59-.01 1.16-.04 1.72h7.23ZM103 9.5h8.91c1.15 0 1.72.31 1.72.92 0 .34-.2.68-.59 1.02-.79.73-1.64 1.33-2.54 1.8-.62.36-1.07.6-1.35.7v.25h7.13c.49.03.75.31.78.86-.03.5-.29.76-.78.78h-7.13v3.03c0 1.42-.72 2.13-2.17 2.13-.38 0-1-.03-1.88-.08-.36-.17-.57-.43-.62-.78.03-.6.34-.91.94-.94.04 0 .1 0 .2.02.65.04 1.08.06 1.29.06.35 0 .53-.16.53-.47v-2.97h-7.73c-.5-.03-.76-.29-.78-.78.03-.55.29-.83.78-.86h7.73v-1.11c.03-.55.31-.83.86-.86.25.01.44.07.57.18.69-.38 1.36-.82 2.01-1.33h-7.87c-.51-.05-.77-.31-.8-.78.03-.48.29-.74.8-.78Zm10.55-6.58c.57 0 .91.26 1.02.78 0 .25-.57 1.11-1.72 2.58h2.01c1.2 0 1.8.6 1.8 1.8 0 .07-.03.8-.08 2.21-.12.46-.45.69-1 .7-.48-.17-.72-.48-.72-.94.05-.95.08-1.45.08-1.48 0-.47-.23-.7-.7-.7h-12.58c-.46 0-.68.23-.68.7v1.56c-.03.51-.31.79-.86.86-.55-.06-.84-.35-.88-.86V8.08c0-1.2.61-1.8 1.82-1.8h9.77c.75-.94 1.41-1.84 1.95-2.71.14-.43.4-.64.78-.64Zm-11.27 0c.31 0 .55.14.72.41.29.26.62.72 1 1.39.1.29.16.5.16.64-.05.42-.34.65-.86.7-.29 0-.51-.16-.68-.49-.3-.61-.59-1.07-.88-1.39a1.55 1.55 0 0 1-.16-.49c.05-.47.29-.73.7-.78Zm4.63-.3c.23 0 .47.1.7.29.23.27.46.57.68.9.29.38.48.65.57.82.14.22.21.44.21.64-.05.47-.34.73-.86.78-.29 0-.52-.11-.7-.33-.14-.23-.31-.52-.51-.86-.2-.29-.36-.54-.51-.76-.25-.3-.37-.56-.37-.78.09-.38.35-.61.78-.7ZM119.78 6.92c.55.01.83.27.86.78-.04 1.08-.1 1.95-.2 2.62-.09.56-.2 1.07-.33 1.52-.18.52-.53.78-1.04.78-.39-.09-.62-.38-.7-.86 0-.17.06-.38.18-.62.16-.49.27-1 .35-1.52.09-.6.15-1.29.18-2.07.03-.38.26-.59.7-.62Zm2.2-4.37c.55.03.83.31.86.86v17.11c-.03.53-.31.81-.86.84-.55-.03-.83-.31-.86-.84V3.41c.03-.55.31-.83.86-.86Zm1.88 3.36c.33 0 .56.15.7.45.16.51.28 1.11.37 1.8-.03.55-.29.83-.78.86-.44-.06-.67-.38-.68-.94-.08-.39-.16-.75-.25-1.07a1.76 1.76 0 0 1-.08-.39c.05-.43.29-.66.72-.7Zm12.19-1.64c.43.03.66.26.68.7-.03.43-.25.66-.68.68h-4.69v.96h3.83c.43.03.66.28.68.76-.03.44-.25.68-.68.7h-3.83v1.11h5.29c.46.03.69.29.7.78-.01.43-.25.66-.7.68h-11.88c-.44-.03-.68-.25-.7-.68.03-.49.26-.75.7-.78h4.94V8.07h-3.44c-.46-.03-.7-.26-.72-.7.03-.48.27-.74.72-.76h3.44v-.96h-4.16c-.44-.03-.68-.25-.7-.68.03-.44.26-.68.7-.7h4.16v-.94c.03-.49.29-.75.78-.78.53.03.82.29.86.78v.94h4.69Zm-8.83 7.34h6.72c1.15 0 1.72.57 1.72 1.72v5.94c0 1.3-.65 1.95-1.95 1.95-.55 0-1.15-.03-1.8-.08-.36-.13-.57-.42-.62-.86.05-.48.34-.74.86-.78h.1c.48.05.86.08 1.13.08.42 0 .62-.21.62-.64v-1.07h-6.86v2.66c0 .52-.29.78-.86.78-.52 0-.78-.26-.78-.78v-7.19c0-1.15.57-1.72 1.72-1.72Zm-.08 2.5H134v-.55c0-.33-.15-.49-.45-.49h-5.94c-.31 0-.47.16-.47.49v.55Zm0 2.4H134v-1.07h-6.86v1.07ZM146.65 4.56c.44.03.68.27.7.72-.03.44-.26.68-.7.7h-2.25v1.93h2.95c.46.03.7.29.72.8-.03.44-.27.68-.72.7h-.53l-.84 2.58h1.45c.49.03.75.29.78.78-.03.5-.29.76-.78.78h-3.03v1.8h2.58c.49.03.75.29.78.78-.03.5-.29.76-.78.78h-2.58v3.65c-.03.49-.29.75-.78.78-.5-.03-.76-.29-.78-.78v-3.65h-2.91c-.5-.03-.76-.29-.78-.78.03-.49.29-.75.78-.78h2.91v-1.8h-3.28c-.5-.03-.76-.29-.78-.78.03-.49.29-.75.78-.78h1.62l-.86-2.58h-1c-.46-.03-.69-.26-.7-.7.01-.51.25-.77.7-.8h3.52V5.98h-2.58c-.46-.03-.69-.26-.7-.7.01-.46.25-.7.7-.72h2.58V3.41c.03-.49.29-.75.78-.78.49.03.75.29.78.78v1.15h2.25ZM142.82 12h1.52l.84-2.58h-3.2l.84 2.58Zm9.69-8.67h2.21c1.09 0 1.64.55 1.64 1.64 0 .76-.06 1.42-.18 1.99-.13.69-.35 1.15-.66 1.37-.35.26-.81.39-1.37.39-.29 0-.64-.03-1.07-.08-.48-.13-.74-.39-.78-.78.04-.6.37-.91 1-.94h.16c.34.05.57.08.7.08s.23-.04.29-.12c.06-.05.12-.21.18-.47.06-.25.1-.58.1-1 0-.36-.19-.55-.57-.55h-3.65c-.38 0-.57.18-.57.55v4.45h5.08c1 0 1.5.4 1.5 1.19 0 .92-.25 2-.74 3.22-.39 1.02-.83 1.96-1.33 2.83.49.61 1.26 1.38 2.29 2.3.25.16.38.39.41.7-.05.52-.31.81-.78.86-.18 0-.42-.08-.7-.25-.89-.78-1.6-1.48-2.13-2.09-.25.37-.5.71-.76 1.04-.74.82-1.32 1.23-1.72 1.23-.57 0-.86-.26-.86-.78 0-.21.14-.48.43-.82.66-.68 1.26-1.4 1.78-2.17-.44-.68-.81-1.43-1.11-2.25-.38-.94-.68-2.09-.9-3.46h-.45v8.85c0 .57-.26.86-.78.86-.57 0-.86-.29-.86-.86V4.97c0-1.09.55-1.64 1.64-1.64h2.58Zm-.53 8.1c.2.99.46 1.91.78 2.77.18.43.38.85.61 1.27.27-.51.52-1.04.74-1.58.35-.87.53-1.56.53-2.05 0-.27-.16-.41-.49-.41h-2.17ZM163 9.5h8.91c1.15 0 1.72.31 1.72.92 0 .34-.2.68-.59 1.02-.79.73-1.64 1.33-2.54 1.8-.62.36-1.07.6-1.35.7v.25h7.13c.49.03.75.31.78.86-.03.5-.29.76-.78.78h-7.13v3.03c0 1.42-.72 2.13-2.17 2.13-.38 0-1-.03-1.88-.08-.36-.17-.57-.43-.62-.78.03-.6.34-.91.94-.94.04 0 .1 0 .2.02.65.04 1.08.06 1.29.06.35 0 .53-.16.53-.47v-2.97h-7.73c-.5-.03-.76-.29-.78-.78.03-.55.29-.83.78-.86h7.73v-1.11c.03-.55.31-.83.86-.86.25.01.44.07.57.18.69-.38 1.36-.82 2.01-1.33h-7.87c-.51-.05-.77-.31-.8-.78.03-.48.29-.74.8-.78Zm10.55-6.58c.57 0 .91.26 1.02.78 0 .25-.57 1.11-1.72 2.58h2.01c1.2 0 1.8.6 1.8 1.8 0 .07-.03.8-.08 2.21-.12.46-.45.69-1 .7-.48-.17-.72-.48-.72-.94.05-.95.08-1.45.08-1.48 0-.47-.23-.7-.7-.7h-12.58c-.46 0-.68.23-.68.7v1.56c-.03.51-.31.79-.86.86-.55-.06-.84-.35-.88-.86V8.08c0-1.2.61-1.8 1.82-1.8h9.77c.75-.94 1.41-1.84 1.95-2.71.14-.43.4-.64.78-.64Zm-11.27 0c.31 0 .55.14.72.41.29.26.62.72 1 1.39.1.29.16.5.16.64-.05.42-.34.65-.86.7-.29 0-.51-.16-.68-.49-.3-.61-.59-1.07-.88-1.39a1.55 1.55 0 0 1-.16-.49c.05-.47.29-.73.7-.78Zm4.63-.3c.23 0 .47.1.7.29.23.27.46.57.68.9.29.38.48.65.57.82.14.22.21.44.21.64-.05.47-.34.73-.86.78-.29 0-.52-.11-.7-.33-.14-.23-.31-.52-.51-.86-.2-.29-.36-.54-.51-.76-.25-.3-.37-.56-.37-.78.09-.38.35-.61.78-.7ZM184.33 2.92c.59.03.9.31.94.86V4.8h3.28c.49.03.75.29.78.78-.03.5-.29.76-.78.78h-.51l-.88 3.61h1.7c.44.03.68.28.7.76-.03.44-.26.68-.7.7h-9.38c-.46-.03-.69-.26-.7-.7.01-.48.25-.74.7-.76h1.93l-.76-3.61h-.64c-.48-.03-.74-.29-.78-.78.04-.49.3-.75.78-.78h3.46V3.78c.03-.55.31-.83.86-.86Zm-2.5 10.23h4.82c1.04 0 1.56.52 1.56 1.56v4.08c0 1.04-.52 1.56-1.56 1.56h-4.82c-1.04 0-1.56-.52-1.56-1.56v-4.08c0-1.04.52-1.56 1.56-1.56Zm4.14 5.71c.35 0 .53-.18.53-.53v-3.12c0-.38-.18-.57-.53-.57h-3.46c-.35 0-.53.19-.53.57v3.12c0 .35.18.53.53.53h3.46Zm-2.83-8.89h2.3l.88-3.61h-3.95l.76 3.61Zm9.63-6.27h2.66c1.15 0 1.72.53 1.72 1.58-.01.2-.06.4-.14.62-.42 1.09-1.09 2.53-2.01 4.32-.09.18-.14.33-.14.43 0 .13.06.24.2.33.7.73 1.22 1.45 1.56 2.17.4.82.61 1.58.61 2.29 0 1.08-.3 1.99-.9 2.71-.5.57-1.08.86-1.76.86-.64 0-1.26-.07-1.88-.21-.46-.18-.72-.45-.78-.8.01-.68.33-1.04.94-1.07.05 0 .12 0 .21.02.68.13 1.18.2 1.5.2.21 0 .39-.14.55-.43.16-.35.23-.77.23-1.27 0-.73-.21-1.49-.62-2.29-.38-.7-.88-1.36-1.5-1.97a.812.812 0 0 1-.21-.53c0-.25.05-.48.14-.7.81-1.64 1.43-2.99 1.88-4.06.06-.18.1-.31.1-.39 0-.14-.16-.21-.47-.21h-2.34c-.48 0-.72.23-.72.7v14.22c0 .52-.26.78-.78.78-.57 0-.86-.26-.86-.78V5.42c0-1.15.57-1.72 1.72-1.72h1.11Z"/></g><g fill="#fff"><path d="M41.93 24.99v.69H39.6v2.02h2.26v.69H39.6v3.37h-.75v-6.77h3.08ZM46.66 31.75h-.71v-.58h-.02a1.78 1.78 0 0 1-1.44.69c-.63-.01-1.13-.23-1.49-.67a2.38 2.38 0 0 1-.54-1.55c0-.63.18-1.15.55-1.58.37-.43.87-.64 1.49-.65.28-.01.55.05.81.19.25.13.46.3.64.53h.02v-.61h.71v4.22Zm-3.48-2.14c0 .44.12.82.37 1.13.25.31.6.47 1.04.47.41 0 .75-.15 1.01-.44.26-.3.4-.69.4-1.16 0-.42-.12-.78-.36-1.07-.26-.31-.61-.47-1.05-.47-.4 0-.74.15-1 .45-.26.3-.4.66-.4 1.09ZM47.49 29.67c0-.64.22-1.17.67-1.6.43-.41.96-.63 1.59-.64.25-.01.5.03.76.13.11.04.22.09.31.13.09.05.17.1.23.14v.94c-.35-.44-.79-.67-1.32-.71-.44.02-.8.17-1.08.47-.28.29-.42.66-.42 1.1s.13.81.4 1.11c.28.31.64.46 1.08.47.61-.04 1.07-.28 1.38-.73v.95c-.15.11-.33.21-.54.29-.25.1-.51.15-.79.13-.62 0-1.16-.2-1.6-.61-.43-.41-.65-.94-.65-1.58ZM52.7 27.53v2.42c0 .4.06.7.18.91.14.23.4.35.78.35.35 0 .6-.1.75-.31.14-.2.21-.51.21-.92v-2.46h.71v2.53c0 1.2-.55 1.8-1.66 1.8s-1.68-.6-1.68-1.8v-2.53h.71ZM57.05 31.75h-.71v-7.42h.71v7.42ZM58.93 26.01v1.52h.76v.66h-.76v3.56h-.71v-3.56h-.44v-.66h.44v-1.52h.71ZM60.98 27.53l1.49 3.03h.02l1.36-3.03h.81l-3.12 6.59h-.81l1.37-2.75-1.93-3.83h.81ZM69.87 27.42c.6 0 1.12.22 1.55.65.44.42.66.95.66 1.59s-.22 1.15-.66 1.57c-.44.42-.96.63-1.56.63s-1.16-.21-1.58-.64c-.43-.44-.64-.96-.64-1.57s.21-1.14.64-1.57c.43-.44.96-.66 1.59-.66Zm1.49 2.23c0-.4-.13-.76-.4-1.08-.28-.33-.65-.5-1.12-.5s-.82.16-1.1.48c-.28.31-.41.68-.41 1.1 0 .46.14.83.43 1.13.3.29.66.43 1.08.43s.77-.14 1.06-.43c.28-.28.43-.66.44-1.13ZM74.92 25.03c-.14-.06-.3-.09-.47-.09-.26 0-.43.09-.52.28-.05.11-.08.33-.08.64v1.67h1.07v.66h-1.07v3.56h-.71v-3.56h-.4v-.66h.4V25.6c0-.61.17-1 .5-1.18.26-.14.5-.21.69-.21h.08c.16 0 .32.03.5.08v.72ZM78.98 24.99v6.77h-.75v-6.77h.75ZM79.9 27.53h.71v.5h.03c.29-.4.7-.6 1.21-.61.95-.01 1.43.58 1.43 1.76v2.57h-.71v-2.52c0-.79-.3-1.17-.89-1.16-.4 0-.67.14-.83.4-.16.26-.23.63-.23 1.12v2.16h-.71v-4.22ZM86.29 25.03c-.14-.06-.3-.09-.47-.09-.26 0-.43.09-.52.28-.05.11-.08.33-.08.64v1.67h1.07v.66h-1.07v3.56h-.71v-3.56h-.4v-.66h.4V25.6c0-.61.17-1 .5-1.18.26-.14.5-.21.69-.21h.08c.16 0 .32.03.5.08v.72ZM89.13 27.42c.6 0 1.12.22 1.55.65.44.42.66.95.66 1.59s-.22 1.15-.66 1.57c-.44.42-.96.63-1.56.63-.63 0-1.16-.21-1.58-.64-.43-.44-.64-.96-.64-1.57s.21-1.14.64-1.57c.43-.44.96-.66 1.59-.66Zm1.49 2.23c0-.4-.13-.76-.4-1.08-.28-.33-.65-.5-1.12-.5s-.82.16-1.1.48c-.28.31-.41.68-.4 1.1 0 .46.14.83.43 1.13.3.29.66.43 1.08.43s.77-.14 1.06-.43c.28-.28.43-.66.44-1.13ZM92.15 27.53h.71V28h.02c.3-.39.62-.58.95-.58.22 0 .43.07.64.2l-.34.64c-.19-.14-.33-.2-.43-.19-.34.03-.57.2-.67.5-.1.29-.15.62-.15.98v2.21h-.71v-4.22ZM95.15 27.53h.71V28h.02c.24-.37.58-.56 1.03-.58.52-.01.9.22 1.16.69.1-.19.26-.35.47-.49.23-.14.5-.21.81-.21.49 0 .83.18 1.04.51.19.32.29.71.29 1.17v2.65h-.71V29.2c0-.75-.26-1.13-.77-1.14-.62 0-.93.46-.93 1.37v2.31h-.71v-2.45c0-.83-.25-1.24-.76-1.23-.62.01-.94.5-.94 1.45v2.23h-.71v-4.22ZM105.65 31.75h-.71v-.58h-.02c-.15.2-.35.36-.59.49-.27.14-.56.2-.86.2-.63-.01-1.13-.23-1.49-.67a2.38 2.38 0 0 1-.54-1.55c0-.63.18-1.15.55-1.58.37-.43.87-.64 1.48-.65.28-.01.55.05.81.19.25.13.46.3.64.53h.02v-.61h.71v4.22Zm-3.48-2.14c0 .44.12.82.37 1.13.25.31.6.47 1.04.47.41 0 .75-.15 1.01-.44.26-.3.4-.69.4-1.16 0-.42-.12-.78-.36-1.07-.26-.31-.61-.47-1.05-.47-.4 0-.74.15-1 .45-.26.3-.4.66-.4 1.09ZM107.63 26.01v1.52h.76v.66h-.76v3.56h-.71v-3.56h-.44v-.66h.44v-1.52h.71ZM109.71 25.43c.14 0 .27.06.36.16.1.1.15.22.15.36s-.05.25-.14.36c-.1.11-.22.16-.36.16s-.27-.05-.37-.16c-.1-.1-.14-.22-.14-.36 0-.15.06-.27.17-.37.11-.1.22-.14.34-.14Zm.36 2.1v4.22h-.71v-4.22h.71ZM110.87 29.67c0-.64.22-1.17.67-1.6.43-.41.96-.63 1.59-.64.25-.01.5.03.76.13.11.04.22.09.31.13.09.05.17.1.23.14v.94c-.35-.44-.79-.67-1.32-.71-.44.02-.8.17-1.08.47-.28.29-.42.66-.42 1.1s.13.81.4 1.11c.28.31.64.46 1.08.47.61-.04 1.07-.28 1.38-.73v.95c-.15.11-.33.21-.54.29-.25.1-.51.15-.79.13-.62 0-1.16-.2-1.6-.61-.43-.41-.65-.94-.65-1.58ZM116.75 27.42c.25-.01.47.06.68.22.2.15.35.33.45.55l-.59.32c-.14-.29-.34-.44-.58-.44-.14 0-.27.06-.37.15-.11.09-.16.2-.16.33.01.19.13.34.37.48.09.06.29.15.59.26.26.1.49.23.68.4.2.19.3.46.32.81 0 .37-.13.68-.4.94-.27.28-.62.41-1.04.41s-.74-.11-1.01-.34c-.23-.21-.39-.44-.48-.7l.63-.27c.07.13.16.28.27.43.13.16.32.23.59.23a.73.73 0 0 0 .52-.21c.06-.06.1-.13.13-.21.03-.08.04-.16.04-.23-.01-.22-.13-.4-.34-.55a2.6 2.6 0 0 0-.62-.29c-.25-.1-.47-.23-.65-.39-.2-.17-.3-.42-.3-.74 0-.16.03-.31.09-.46.06-.14.15-.27.26-.37.11-.11.24-.19.4-.25.15-.06.32-.09.5-.09ZM119.4 33.29l-.48-.19.83-2.32.67.23-1.02 2.29ZM125.87 24.86c.41 0 .78.11 1.09.32.29.19.51.44.66.73l-.59.39c-.1-.18-.23-.34-.4-.5-.19-.16-.44-.24-.76-.24-.31 0-.58.09-.81.29-.23.2-.34.45-.34.76s.16.57.49.77c.06.04.18.1.36.19s.43.2.74.34c.45.2.8.42 1.05.65.33.29.5.7.5 1.21 0 .58-.2 1.07-.61 1.49s-.91.61-1.51.6c-.62 0-1.11-.18-1.48-.55-.35-.35-.56-.75-.64-1.19l.73-.21c.07.38.22.68.46.9.25.25.55.37.92.37.39 0 .72-.13.99-.41.27-.27.4-.58.4-.93 0-.41-.17-.73-.5-.95-.1-.07-.24-.15-.42-.24s-.41-.2-.68-.32c-.46-.21-.82-.41-1.06-.61-.32-.27-.49-.65-.49-1.14 0-.52.19-.94.57-1.25.37-.32.82-.48 1.33-.48ZM129.41 24.34v3.69l.02.02c.31-.41.71-.62 1.22-.62.95-.01 1.42.56 1.42 1.73v2.6h-.71v-2.5c0-.8-.3-1.19-.89-1.18-.41.01-.69.16-.85.44-.14.26-.22.63-.22 1.12v2.12h-.71v-7.42h.71ZM133.32 25.43c.14 0 .27.06.36.16.1.1.15.22.15.36s-.05.25-.14.36c-.1.11-.22.16-.36.16s-.27-.05-.37-.16c-.1-.1-.14-.22-.14-.36 0-.15.06-.27.17-.37.11-.1.22-.14.34-.14Zm.36 2.1v4.22h-.71v-4.22h.71ZM138.89 27.53l-3.04 3.56h2.92v.66h-4.37l3.05-3.56h-2.48v-.66h3.92ZM140.33 27.53v2.42c0 .4.06.7.18.91.14.23.4.35.78.35.35 0 .6-.1.75-.31.14-.2.21-.51.21-.92v-2.46h.71v2.53c0 1.2-.55 1.8-1.66 1.8s-1.68-.6-1.68-1.8v-2.53h.71ZM146.02 27.42c.6 0 1.12.22 1.55.65.44.42.66.95.66 1.59s-.22 1.15-.66 1.57c-.44.42-.96.63-1.56.63-.63 0-1.16-.21-1.58-.64-.43-.44-.64-.96-.64-1.57s.21-1.14.64-1.57c.43-.44.96-.66 1.59-.66Zm1.5 2.23c0-.4-.13-.76-.4-1.08-.28-.33-.65-.5-1.12-.5s-.82.16-1.1.48c-.28.31-.41.68-.4 1.1 0 .46.14.83.43 1.13.3.29.66.43 1.08.43s.77-.14 1.06-.43c.28-.28.43-.66.44-1.13ZM149.76 31.75h-.71v-7.42h.71v4.76l1.55-1.57h.95l-1.8 1.8 2.15 2.42h-.95c-.1-.11-.22-.25-.36-.41-.14-.16-.31-.35-.5-.58-.08-.1-.17-.19-.24-.27-.08-.08-.16-.17-.23-.24l-.36-.41-.19.19v1.72ZM157.33 31.75h-.71v-.58h-.02c-.15.2-.35.36-.59.49-.27.14-.56.2-.86.2-.63-.01-1.13-.23-1.49-.67a2.38 2.38 0 0 1-.54-1.55c0-.63.18-1.15.55-1.58.37-.43.87-.64 1.48-.65.28-.01.55.05.81.19.25.13.46.3.64.53h.02v-.61h.71v4.22Zm-3.48-2.14c0 .44.12.82.37 1.13.25.31.6.47 1.04.47.41 0 .75-.15 1.01-.44.26-.3.4-.69.4-1.16 0-.42-.12-.78-.36-1.07-.26-.31-.61-.47-1.05-.47-.4 0-.74.15-1 .45-.26.3-.4.66-.4 1.09ZM161.61 24.99v4.33c0 .62.14 1.08.43 1.37.32.32.73.49 1.24.5.49 0 .91-.17 1.25-.52.28-.28.41-.7.41-1.28v-4.4h.75v4.41c0 .76-.22 1.35-.66 1.78-.46.44-1.04.67-1.75.68-.31 0-.63-.05-.95-.17-.32-.12-.6-.3-.84-.53-.42-.42-.63-1.01-.63-1.78v-4.39h.75ZM166.59 27.53h.71v.5h.03c.29-.4.7-.6 1.21-.61.95-.01 1.43.58 1.43 1.76v2.57h-.71v-2.52c0-.79-.3-1.17-.89-1.16-.4 0-.67.14-.83.4-.16.26-.23.63-.23 1.12v2.16h-.71v-4.22ZM171.47 25.43c.14 0 .27.06.37.16.1.1.15.22.15.36s-.05.25-.14.36c-.1.11-.22.16-.36.16s-.27-.05-.37-.16c-.1-.1-.14-.22-.14-.36 0-.15.06-.27.17-.37.1-.1.22-.14.34-.14Zm.36 2.1v4.22h-.71v-4.22h.71ZM173.31 27.53l1.26 2.85 1.27-2.85h.8l-2.06 4.49-2.08-4.49h.81ZM179.2 27.42c.67 0 1.18.24 1.53.69.32.44.49.95.49 1.53v.16h-3.32c.01.4.14.74.39 1 .26.28.59.41 1.01.41.3 0 .56-.08.78-.25.2-.16.37-.37.5-.62l.6.35c-.19.35-.44.63-.76.85-.34.22-.73.32-1.17.32-.61 0-1.11-.2-1.5-.59-.38-.4-.58-.93-.58-1.58s.18-1.18.54-1.61c.37-.44.87-.66 1.5-.66Zm1.26 1.77a1.31 1.31 0 0 0-.42-.78c-.23-.21-.5-.32-.82-.33-.32 0-.6.11-.85.32-.25.22-.4.49-.45.79h2.54ZM182.02 27.53h.71V28h.02c.3-.39.62-.58.94-.58.22 0 .43.07.64.2l-.34.64c-.19-.14-.33-.2-.43-.19-.34.03-.57.2-.67.5-.1.29-.15.62-.15.98v2.21h-.71v-4.22ZM186.37 27.42c.25-.01.47.06.68.22.2.15.35.33.45.55l-.59.32c-.14-.29-.34-.44-.58-.44-.14 0-.27.06-.37.15-.11.09-.16.2-.16.33.01.19.13.34.37.48.09.06.29.15.59.26.26.1.49.23.68.4.2.19.3.46.32.81 0 .37-.13.68-.4.94-.27.28-.62.41-1.04.41s-.74-.11-1.01-.34c-.23-.21-.39-.44-.48-.7l.63-.27c.07.13.16.28.27.43.13.16.32.23.59.23a.73.73 0 0 0 .52-.21c.06-.06.1-.13.13-.21.03-.08.04-.16.04-.23-.01-.22-.13-.4-.34-.55a2.6 2.6 0 0 0-.62-.29c-.25-.1-.47-.23-.65-.39-.2-.17-.3-.42-.3-.74 0-.16.03-.31.09-.46.06-.14.15-.27.26-.37.11-.11.24-.19.4-.25.15-.06.32-.09.5-.09ZM189.12 25.43c.14 0 .27.06.36.16.1.1.15.22.15.36s-.05.25-.14.36c-.1.11-.22.16-.36.16s-.27-.05-.37-.16c-.1-.1-.14-.22-.14-.36 0-.15.06-.27.17-.37.11-.1.22-.14.34-.14Zm.36 2.1v4.22h-.71v-4.22h.71ZM191.44 26.01v1.52h.76v.66h-.76v3.56h-.71v-3.56h-.44v-.66h.44v-1.52h.71ZM193.49 27.53l1.49 3.03h.02l1.36-3.03h.81l-3.12 6.59h-.81l1.37-2.75-1.93-3.83h.81Z"/></g><g fill="#fff"><path d="M219.58 3.45v29.09H213V3.45h6.58ZM230.92 8.97h-7.85V3.45h22.39v5.52h-7.96v23.57h-6.58V8.97ZM249.17 25.76c1.74.93 4.48 1.83 7.29 1.83 3.02 0 4.62-1.26 4.62-3.17 0-1.79-1.39-2.84-4.87-4.07-4.85-1.72-8.03-4.37-8.03-8.62 0-4.96 4.16-8.73 11.01-8.73 3.32 0 5.71.66 7.43 1.46l-1.45 5.27c-1.15-.55-3.25-1.38-6.07-1.38s-4.23 1.33-4.23 2.81c0 1.85 1.61 2.67 5.39 4.09 5.15 1.93 7.54 4.6 7.54 8.71 0 4.86-3.72 9.03-11.73 9.03-3.3 0-6.59-.9-8.22-1.81l1.33-5.43Z"/></g><g fill="#fff"><path d="M281.59 12.93v.89h-1.98v.71h1.44v.93h-1.44v.77h2.13v.86H276v-.86h2.35v-.77h-1.75v-.93h1.75v-.71h-2.06v-.89h2.06v-1.15h1.26v1.15h1.98Zm-5.04 4.93h4.76V23c0 .4-.08.69-.25.86-.13.2-.65.37-1.56.51-.07-.46-.22-.88-.44-1.26h.89c.1 0 .15-.06.15-.18v-1.2h-2.35v2.58h-1.2v-6.45Zm1.2 1.52h2.35v-.66h-2.35v.66Zm0 1.55h2.35v-.71h-2.35v.71Zm5.85-9.36 1.2.55c-.16.36-.33.68-.51.98h1.93l.12-.18.86.89-1.37 1.7h2.09v2.3h.81v.92h-.81v2.64h-1.15v-.34h-1.44v2.26c-.02.3-.1.53-.23.68-.19.23-.77.38-1.72.46-.04-.35-.15-.73-.34-1.15h.89c.17 0 .26-.05.26-.16v-2.09h-1.9v-.92h1.9v-1.38h-2.5v-.92h2.5v-1.33h-1.8v-.63c-.15.17-.29.33-.44.46-.16-.37-.38-.68-.66-.93.46-.53.84-1.05 1.16-1.57.37-.61.75-1.36 1.13-2.24Zm-.89 3.94h1.75l1.04-1.44h-1.78c-.11.18-.21.35-.31.49a8.5 8.5 0 0 1-.7.94Zm2.64.97v1.33h1.44v-1.33h-1.44Zm0 2.24v1.38h1.44v-1.38h-1.44ZM290.66 12.33h11.28v10.5c0 .39-.11.67-.34.85-.16.18-.83.34-2.01.46-.08-.43-.23-.83-.44-1.2h1.3c.15 0 .22-.05.22-.16v-9.35h-8.75v10.79h-1.26V12.34Zm3.73 1.43c.41.54.79 1.12 1.15 1.75l-.81.49h2.3l1.07-2.3 1.05.55c-.36.6-.67 1.19-.96 1.75h2.05v1.03h-3.39v3.73h1.53v-2.58h1.2v3.68h-5.3v.82h-1.22v-4.5h1.22v2.58h1.42v-3.73h-3.29V16h2.08l-1.04-1.64.94-.6ZM316.36 15.07v1.3h-5.25c.37 1.47.95 2.69 1.72 3.68.91 1.17 2.11 2.15 3.58 2.95-.37.4-.64.84-.82 1.31-1.56-.93-2.81-2.07-3.76-3.43-.63-.88-1.13-1.93-1.49-3.16-.05.25-.11.47-.16.68-.37 1.31-.99 2.42-1.86 3.34-.91.98-2.09 1.84-3.54 2.57-.25-.4-.56-.77-.93-1.09 1.33-.67 2.42-1.44 3.25-2.34.79-.84 1.36-1.85 1.7-3.05.13-.42.23-.91.31-1.46h-4.88v-1.3h5.02c.07-.97.11-2.08.11-3.35h1.44c0 1.26-.04 2.37-.11 3.35h5.67ZM320.24 16.28h6.74l.26-.22.94.97-3.45 2.42v.05h5.62v1.08h-5.62V23c-.03.31-.13.55-.3.72-.21.23-.88.39-2 .48-.04-.36-.17-.76-.4-1.2h1.2c.19 0 .29-.08.29-.23v-2.19h-5.37V19.5h5.37v-1.22h1.04l1.24-1.03h-5.58v-.98Zm7.29-4.66 1.37.66c-.37.55-.79 1.21-1.24 1.98h2.54v2.95h-1.24v-1.98h-9.35v1.98h-1.26v-2.95h7.96l1.23-2.64Zm-6.78.1c.29.53.58 1.11.86 1.75l-1.15.49c-.27-.67-.56-1.27-.86-1.79l1.15-.45Zm3.5 0c.27.47.54 1.01.81 1.6l-1.2.55c-.27-.64-.56-1.2-.86-1.7l1.26-.45ZM334.14 23h-1.72v-9.95h1.72V23ZM343.46 14.45h-3.1v8.56h-1.72v-8.56h-3.08v-1.39h7.9v1.39ZM348.96 16.44l-1.2.78c-.67-1.17-1.44-2.27-2.28-3.32l1.22-.71c.69.85 1.45 1.93 2.27 3.25Zm6.79-3.03c-.75 2.96-1.51 5.05-2.28 6.26-.58.89-1.27 1.64-2.06 2.24-.88.67-2.05 1.31-3.49 1.91-.21-.47-.51-.91-.9-1.31 2.62-.62 4.53-1.98 5.71-4.07.59-1.04 1.12-2.82 1.57-5.35l1.45.31ZM362.75 13.46c0 2.67-.16 4.55-.46 5.65-.47 1.72-1.5 3.24-3.06 4.55-.28-.4-.58-.78-.89-1.15 1.24-.88 2.07-1.86 2.49-2.94.38-1.02.58-3.06.6-6.11h1.33Zm8.51 4.49c-1.88 2.31-3.75 4.08-5.62 5.33l-.94-.98.16-.23v-9.53h1.31v8.65c1.3-.91 2.66-2.29 4.07-4.13.28.3.62.6 1.01.89ZM384.22 18.7h-10.95v-1.35h10.95v1.35ZM390.95 17.21l-.67 1.2c-.9-.52-1.82-.95-2.76-1.29l.55-1.16c1.06.37 2.02.79 2.88 1.24Zm7.71-.54c-1.3 1.53-2.68 2.83-4.14 3.9-1.45 1.08-3.34 2.09-5.67 3.04l-.68-1.42c2.07-.67 3.91-1.57 5.52-2.68 1.59-1.13 2.94-2.42 4.07-3.86.21.44.51.78.9 1.03Zm-6.18-2.69-.78 1.11c-.93-.64-1.82-1.16-2.67-1.56l.6-1.13c1.22.61 2.17 1.14 2.84 1.59ZM410.31 23.99h-1.04v-.49h-6.04v-1.04h6.04v-2.3h-6.04v-1.05h6.04v-2.16h-6.04v-1.04h7.08v8.08ZM426.68 16.03c-1.69 1.93-3.2 3.4-4.55 4.42-1.39 1.08-3.22 2.15-5.51 3.21l-.74-1.53c1.99-.65 3.83-1.62 5.54-2.91 1.56-1.19 2.98-2.6 4.25-4.21.25.42.59.76 1.01 1.03Zm-6.6-.94-.96 1.15c-1.09-.98-2.15-1.8-3.17-2.46l.82-1.08c1.21.74 2.32 1.54 3.31 2.39ZM439.55 20.42v1.05h-4.21v1.2h5.47v1.09h-12.3v-1.09h5.54v-1.2h-3.99v-1.05h3.99v-1.04h1.3v1.04h4.21Zm-5.51-8.64h1.3v1.33h4.99v2.67h-1.04v.6h-5.09l-1.05 1.79 3.83-.19c-.24-.2-.47-.38-.7-.55l.77-.89c.95.66 1.86 1.4 2.73 2.24l-.94.94c-.28-.3-.56-.58-.83-.85l-8.18.56-.18-1.08 2.17-.12.94-1.86h-2.72v-.55h-1V13.1h4.99v-1.33Zm-3.73 3.55h8.75v-1.2h-8.75v1.2Z"/></g></svg>