<?xml version="1.0" encoding="UTF-8"?>
<svg id="_レイヤー_1" data-name="レイヤー_1" xmlns="http://www.w3.org/2000/svg" width="160" height="60" version="1.1" viewBox="0 0 160 60">
  <!-- Generator: Adobe Illustrator 29.1.0, SVG Export Plug-In . SVG Version: 2.1.0 Build 142)  -->
  <g opacity=".5">
    <path d="M43.531,26.622h-3.818v-1.172c0-.547-.049-.895-.146-1.045s-.26-.225-.488-.225c-.248,0-.435.101-.562.303-.127.202-.19.508-.19.918,0,.527.071.925.214,1.192.137.268.524.59,1.162.967,1.83,1.086,2.983,1.978,3.458,2.674s.713,1.82.713,3.369c0,1.127-.132,1.957-.396,2.49-.264.534-.773.981-1.528,1.343s-1.634.542-2.637.542c-1.1,0-2.04-.208-2.817-.625s-1.288-.947-1.528-1.592-.361-1.559-.361-2.744v-1.035h3.818v1.924c0,.593.054.974.161,1.143.107.17.298.254.571.254s.477-.107.61-.322.2-.533.2-.957c0-.931-.127-1.539-.381-1.826-.26-.286-.902-.765-1.924-1.435-1.022-.677-1.699-1.168-2.031-1.475s-.607-.729-.825-1.27-.327-1.23-.327-2.07c0-1.211.155-2.096.464-2.656s.809-.998,1.499-1.313,1.523-.474,2.5-.474c1.068,0,1.978.172,2.729.518s1.25.78,1.494,1.304.366,1.415.366,2.671v.625Z" fill="#fff"/>
    <path d="M54.557,31.094c0,1.589-.038,2.714-.112,3.374-.075.661-.309,1.265-.703,1.812s-.926.967-1.597,1.26-1.452.439-2.344.439c-.846,0-1.606-.139-2.28-.415s-1.216-.691-1.626-1.245-.654-1.155-.732-1.807c-.078-.65-.117-1.79-.117-3.418v-2.705c0-1.588.038-2.713.112-3.374s.309-1.265.703-1.812.926-.967,1.597-1.26,1.452-.439,2.344-.439c.846,0,1.606.138,2.28.415s1.216.692,1.626,1.245.654,1.156.732,1.807.117,1.791.117,3.418v2.705ZM50.445,25.899c0-.736-.041-1.206-.122-1.411s-.249-.308-.503-.308c-.215,0-.379.083-.493.249s-.171.656-.171,1.47v7.382c0,.918.038,1.484.112,1.699s.249.322.522.322c.28,0,.459-.123.537-.371.078-.247.117-.836.117-1.768v-7.265Z" fill="#fff"/>
    <path d="M65.436,21.836v10.566c0,1.198-.039,2.04-.117,2.524-.078.485-.309.983-.693,1.494s-.89.898-1.519,1.162-1.369.396-2.222.396c-.944,0-1.777-.156-2.5-.469s-1.263-.72-1.621-1.221-.57-1.03-.635-1.587-.098-1.727-.098-3.511v-9.355h4.111v11.855c0,.69.038,1.132.112,1.323.075.192.226.288.454.288.26,0,.428-.105.503-.317.075-.211.112-.711.112-1.499v-11.65h4.111Z" fill="#fff"/>
    <path d="M76.207,21.836v15.81h-3.604l-2.139-7.187v7.187h-3.438v-15.81h3.438l2.305,7.119v-7.119h3.438Z" fill="#fff"/>
    <path d="M77.857,21.836h3.076c1.986,0,3.329.091,4.028.273.7.182,1.232.482,1.597.898.365.417.593.88.684,1.392.092.511.137,1.515.137,3.013v5.537c0,1.42-.066,2.368-.2,2.847-.133.479-.366.853-.698,1.123s-.742.459-1.23.566-1.224.161-2.207.161h-5.186v-15.81ZM81.969,24.542v10.4c.593,0,.957-.118,1.094-.356.137-.237.205-.884.205-1.938v-6.142c0-.716-.022-1.175-.068-1.377-.045-.202-.149-.35-.312-.444-.162-.094-.469-.142-.918-.142Z" fill="#fff"/>
  </g>
  <path d="M154,14h-52c-2.2,0-4,1.8-4,4v24c0,2.2,1.8,4,4,4h52c2.2,0,4-1.8,4-4v-24c0-2.2-1.8-4-4-4ZM156,42c0,1.1-.9,2-2,2h-52c-1.1,0-2-.9-2-2v-24c0-1.1.9-2,2-2h52c1.1,0,2,.9,2,2v24Z" fill="#fff" opacity=".5"/>
  <g opacity=".5">
    <g>
      <path d="M124.792,31.094c0,1.589-.037,2.714-.112,3.374-.074.661-.309,1.265-.703,1.812-.394.547-.926.967-1.597,1.26-.67.293-1.451.439-2.344.439-.846,0-1.606-.139-2.28-.415s-1.216-.691-1.626-1.245-.654-1.155-.732-1.807c-.078-.65-.117-1.79-.117-3.418v-2.705c0-1.588.038-2.713.112-3.374.075-.661.31-1.265.703-1.812.395-.547.927-.967,1.597-1.26.671-.293,1.452-.439,2.344-.439.847,0,1.606.138,2.28.415s1.216.692,1.626,1.245.654,1.156.732,1.807.117,1.791.117,3.418v2.705ZM120.681,25.899c0-.736-.04-1.206-.122-1.411-.081-.205-.249-.308-.503-.308-.215,0-.379.083-.493.249-.113.166-.171.656-.171,1.47v7.382c0,.918.038,1.484.112,1.699.075.215.249.322.522.322.28,0,.459-.123.537-.371.078-.247.117-.836.117-1.768v-7.265Z" fill="#fff"/>
      <path d="M126.325,21.836h6.963v3.164h-2.852v2.998h2.539v3.007h-2.539v6.641h-4.111v-15.81Z" fill="#fff"/>
      <path d="M134.284,21.836h6.963v3.164h-2.852v2.998h2.539v3.007h-2.539v6.641h-4.111v-15.81Z" fill="#fff"/>
    </g>
  </g>
  <g opacity=".5">
    <path d="M13.469,38.531c-.979-.979-1.469-2.156-1.469-3.531s.49-2.552,1.469-3.531,2.156-1.469,3.531-1.469c.479,0,.922.057,1.328.172s.797.286,1.172.516v-10.688h7.5v3.75h-5v11.25c0,1.375-.49,2.552-1.469,3.531s-2.156,1.469-3.531,1.469-2.552-.49-3.531-1.469ZM2,35c0-2.062.396-4.005,1.187-5.828.792-1.823,1.865-3.411,3.219-4.766,1.354-1.354,2.943-2.427,4.766-3.219s3.766-1.187,5.828-1.187v2.5c-1.708,0-3.323.328-4.844.984s-2.849,1.552-3.984,2.688c-1.135,1.135-2.031,2.458-2.688,3.969-.656,1.51-.984,3.13-.984,4.859h-2.5ZM7,35c0-1.375.266-2.672.797-3.891s1.25-2.281,2.156-3.188,1.964-1.62,3.172-2.141,2.5-.781,3.875-.781v2.5c-2.083,0-3.854.729-5.312,2.188-1.458,1.458-2.188,3.229-2.188,5.312h-2.5Z" fill="#fff"/>
  </g>
</svg>